<svg width="32" height="40" viewBox="0 0 32 40" fill="none" xmlns="http://www.w3.org/2000/svg">
<path fill-rule="evenodd" clip-rule="evenodd" d="M22.7385 2.8129C25.7951 4.17382 27.9271 7.24689 27.9271 10.8197V11.7924H28.896C30.5015 11.7924 31.803 13.099 31.803 14.7106V24.438C31.803 26.0496 30.5015 27.3562 28.896 27.3562H27.9271V30.2744C27.9271 30.8116 27.4932 31.2471 26.9581 31.2471H24.0512V36.1108C24.0512 37.7224 22.7496 39.029 21.1442 39.029C19.5388 39.029 18.2373 37.7224 18.2373 36.1108V31.2471H14.3614V36.1108C14.3614 37.7224 13.0598 39.029 11.4544 39.029C9.84902 39.029 8.54749 37.7224 8.54749 36.1108V31.2471H5.64055C5.10541 31.2471 4.67157 30.8116 4.67157 30.2744V27.3562H3.70259C2.09719 27.3562 0.795654 26.0496 0.795654 24.438V14.7106C0.795654 13.099 2.09719 11.7924 3.70259 11.7924H4.67157V10.8197C4.67157 7.24689 6.80358 4.17382 9.86013 2.8129L8.83133 1.78012C8.45291 1.40028 8.45291 0.784375 8.83133 0.404503C9.20975 0.0246303 9.82318 0.0246303 10.2016 0.404503L11.9711 2.18075C12.4336 2.10462 12.9084 2.06506 13.3924 2.06506H19.2063C19.6902 2.06506 20.165 2.10462 20.6276 2.18075L22.397 0.404503C22.7755 0.0246303 23.3889 0.0246303 23.7673 0.404503C24.1457 0.784375 24.1457 1.40028 23.7673 1.78012L22.7385 2.8129ZM20.1752 31.2471V36.1108C20.1752 36.648 20.6091 37.0835 21.1442 37.0835C21.6793 37.0835 22.1132 36.648 22.1132 36.1108V31.2471H20.1752ZM10.4854 31.2471H12.4234V36.1108C12.4234 36.648 11.9896 37.0835 11.4544 37.0835C10.9193 37.0835 10.4854 36.648 10.4854 36.1108V31.2471ZM4.67157 13.7379H3.70259C3.16746 13.7379 2.73361 14.1734 2.73361 14.7106V24.438C2.73361 24.9752 3.16746 25.4107 3.70259 25.4107H4.67157V13.7379ZM27.9271 25.4107V13.7379H28.896C29.4312 13.7379 29.865 14.1734 29.865 14.7106V24.438C29.865 24.9752 29.4312 25.4107 28.896 25.4107H27.9271ZM6.67813 9.84694H25.9204C25.4502 6.54717 22.6233 4.01053 19.2063 4.01053H13.3924C9.97524 4.01053 7.14841 6.54717 6.67813 9.84694ZM12.4234 5.956H10.4854V7.90147H12.4234V5.956ZM20.1752 5.956H22.1132V7.90147H20.1752V5.956ZM6.60953 29.3016V11.7924H25.9891V29.3016H6.60953Z" fill="white"/>
</svg>
