<svg width="40" height="40" viewBox="0 0 40 40" fill="none" xmlns="http://www.w3.org/2000/svg">
<path d="M26.9852 3.4662C27.0054 3.07485 26.8749 2.69085 26.6209 2.39229L26.157 1.81445L25.936 6.08252L26.845 6.51383L26.9852 3.46574V3.4662Z" fill="white"/>
<path d="M24.362 36.5246C24.2812 38.0849 22.996 39.3072 21.4361 39.3072C21.3089 39.3072 21.1798 39.2989 21.0526 39.2824L3.16596 36.9472C3.11451 36.9403 3.06398 36.9316 3.01392 36.9215L3.09062 37.0225C3.31202 37.2816 3.62068 37.4506 3.95782 37.4974L21.9088 39.9695C22.0544 39.9898 22.1995 39.9999 22.3424 39.9999C23.9702 39.9999 25.3583 38.7229 25.4437 37.0473L25.6183 33.2432L24.5044 33.77L24.362 36.5246Z" fill="white"/>
<path d="M26.4496 15.1313L25.4432 15.6072L25.0767 22.6946L26.1304 22.0837L26.4496 15.1313Z" fill="white"/>
<path d="M24.3237 23.0354L24.4146 23.0791L24.5083 23.0249L24.8781 15.875L24.6893 15.9641L24.501 16.0532L23.9916 16.2944L23.6531 22.7176L24.1441 22.9505L24.3237 23.0354Z" fill="white"/>
<path d="M3.0803 36.3722C3.09821 36.3764 3.11657 36.38 3.13448 36.3833C3.14229 36.3846 3.15011 36.3865 3.15792 36.3879C3.1841 36.3924 3.21074 36.3966 3.23738 36.4003L13.7362 37.7709L21.1236 38.7355C21.1759 38.7424 21.2283 38.7474 21.2806 38.7506C21.3325 38.7538 21.3844 38.7557 21.4359 38.7557C22.6444 38.7557 23.6783 37.8375 23.8023 36.6152C23.8065 36.5757 23.8092 36.5362 23.8115 36.4958L23.9388 34.037L23.75 34.1261L23.5617 34.2152L23.3026 34.3379L23.0339 34.4651L22.9439 36.1743C22.9016 37.0346 22.1887 37.6933 21.3509 37.6933C21.2839 37.6933 21.2159 37.6891 21.1474 37.6804L3.50746 35.4352C2.92044 35.3608 2.49647 34.8376 2.54516 34.2478L5.22305 1.77025C5.27036 1.19884 5.74623 0.758352 6.31947 0.756055L9.40521 0.741354H9.4066C9.57655 0.741354 9.71433 0.879156 9.71342 1.04957L9.71021 1.9921C9.70056 2.29204 9.9362 2.54329 10.2366 2.55202L19.1012 2.81935C19.1094 2.81935 19.1177 2.81935 19.1259 2.81935C19.5402 2.81935 19.8898 2.50701 19.9344 2.09269L20.0267 1.07207C20.0464 0.856189 20.227 0.690368 20.4438 0.68945L23.6457 0.674294H23.6512C24.2828 0.674294 24.7862 1.20252 24.755 1.83409L24.5653 5.43108L25.0398 5.65615L25.2194 5.74112L25.399 5.82656L25.608 1.78586C25.6098 1.74728 25.6103 1.70915 25.6098 1.67149C25.6098 1.66138 25.6093 1.65128 25.6089 1.64117C25.608 1.60948 25.6061 1.57825 25.6034 1.54701C25.6029 1.54058 25.6024 1.53415 25.602 1.52772C25.5983 1.49006 25.5933 1.45285 25.5868 1.41565C25.5859 1.40968 25.5845 1.4037 25.5836 1.39773C25.5777 1.36512 25.5712 1.33251 25.5634 1.30082C25.562 1.29484 25.5606 1.28887 25.5593 1.28336C25.5404 1.20849 25.5166 1.13546 25.4881 1.06472C25.4867 1.06151 25.4853 1.05829 25.4839 1.05462C25.4541 0.982503 25.4196 0.912224 25.3806 0.845622C25.3783 0.841488 25.3755 0.837353 25.3732 0.833219C25.3709 0.829085 25.3687 0.82541 25.3664 0.821276C25.0696 0.330715 24.5313 0 23.9126 0H23.9075L6.19176 0.0514444C5.31032 0.0542003 4.57724 0.73079 4.50421 1.60902L1.76615 34.5749C1.72481 35.0728 1.90349 35.5399 2.22227 35.8794C2.22456 35.8821 2.22733 35.8849 2.22962 35.8872C2.23238 35.8899 2.23467 35.8927 2.23743 35.8955C2.24799 35.9065 2.259 35.917 2.26957 35.9276C2.27646 35.9345 2.28336 35.9409 2.29025 35.9478C2.30081 35.9575 2.31137 35.9671 2.32194 35.9768C2.32975 35.9836 2.33757 35.991 2.34537 35.9979C2.35594 36.0071 2.36649 36.0158 2.37751 36.025C2.38578 36.0319 2.39451 36.0388 2.40324 36.0457C2.4138 36.0544 2.42483 36.0627 2.43585 36.0709C2.44504 36.0778 2.45423 36.0842 2.46341 36.0911C2.47444 36.0989 2.48501 36.1067 2.49649 36.1146C2.50614 36.1214 2.51624 36.1279 2.52635 36.1343C2.53737 36.1417 2.54793 36.1485 2.55896 36.1554C2.56998 36.1623 2.58146 36.1688 2.59249 36.1756C2.60259 36.1816 2.61269 36.188 2.62326 36.194C2.64439 36.206 2.66552 36.2174 2.68711 36.2285C2.69584 36.2331 2.70456 36.2367 2.71328 36.2409C2.72752 36.2478 2.74176 36.2547 2.75646 36.2615C2.7661 36.2661 2.7762 36.2703 2.78631 36.2744C2.80009 36.2804 2.81389 36.2863 2.82767 36.2919C2.83777 36.296 2.84833 36.2997 2.85844 36.3038C2.87222 36.3088 2.88645 36.3144 2.90069 36.319C2.91126 36.3226 2.92137 36.3258 2.93194 36.3295C2.94663 36.3341 2.96087 36.3387 2.97603 36.3433C2.98613 36.3465 2.99669 36.3493 3.0068 36.352C3.02242 36.3562 3.03802 36.3603 3.0541 36.364C3.06375 36.3663 3.07339 36.3686 3.08303 36.3709L3.0803 36.3722ZM17.2478 0.930136C17.4508 0.930136 17.6152 1.08631 17.6152 1.27923C17.6152 1.47215 17.4508 1.62832 17.2478 1.62832C17.0447 1.62832 16.8803 1.47215 16.8803 1.27923C16.8803 1.08631 17.0447 0.930136 17.2478 0.930136ZM11.9361 1.25718C11.9471 1.15521 12.0335 1.07804 12.1359 1.07804L15.6612 1.08539C15.7752 1.08539 15.8661 1.18001 15.8615 1.29393L15.8601 1.33067C15.856 1.43862 15.7673 1.52405 15.6594 1.52405H15.6566L12.1327 1.47949C12.0142 1.47812 11.9228 1.37476 11.9357 1.25672L11.9361 1.25718Z" fill="white"/>
<path d="M25.1663 6.73472L24.9872 6.64929L24.5118 6.42376L24.2426 6.29607L23.973 6.16837L22.9092 5.66357L18.7808 7.71952L22.9064 9.70289L23.8108 9.24678L24.0943 9.10393L24.3781 8.96062L24.8806 8.70753L25.0694 8.61199L25.2582 8.51691L25.5416 8.37406L25.825 8.23121L26.7887 7.74524L26.977 7.65016L27.0349 7.62122L26.9797 7.59504L26.7997 7.50961L25.8847 7.07554L25.6155 6.94785L25.3459 6.8197L25.1663 6.73472Z" fill="white"/>
<path d="M22.6395 33.3754L22.6358 31.5436L22.6285 27.8989L18.4541 25.8916L18.4683 31.3291L22.5417 33.3276L22.6395 33.3754Z" fill="white"/>
<path d="M26.304 26.3254L26.1157 26.4201L25.9274 26.5151L24.8517 27.0576L24.5682 27.2005L24.2848 27.3433L24.0961 27.4384L23.9073 27.5339L23.3855 27.7971L23.1797 27.9005L23.187 31.5576L23.1907 33.3752L23.6156 33.1745L23.8039 33.0853L23.9927 32.9962L24.2757 32.8621L24.5586 32.7285L25.666 32.2044L25.8543 32.1153L26.0422 32.0266L27.468 31.3523L27.371 25.7871L26.304 26.3254Z" fill="white"/>
<path d="M18.0099 13.8313L18.4683 13.5705V13.6113L22.6394 15.6576L22.6284 10.1806L18.454 8.17383L18.4655 12.5154L18.0071 12.7763L17.5483 13.0367L13.6431 15.2566L12.1089 14.5286L7.98047 16.585L12.1062 18.5679L16.2341 16.4863L14.6563 15.7376L17.551 14.0918L18.0099 13.8313Z" fill="white"/>
<path d="M7.66732 22.4761L11.8385 24.5224L11.8275 19.0459L7.65308 17.0391L7.66732 22.4761Z" fill="white"/>
<path d="M38.1433 16.9346L33.9524 19.0475L33.963 24.5226L38.2402 22.4993L38.1433 16.9346Z" fill="white"/>
<path d="M29.2263 17.0393L29.2346 20.284L29.2359 20.814L29.2373 21.3441L26.4584 22.9559L26.2691 23.0657L26.0804 23.175L25.4217 23.5571L25.0202 23.79L24.9394 23.8369L24.7359 23.9549L24.4571 24.1161L24.4516 24.1138L24.272 24.0284L24.0924 23.9434L23.9537 23.8773L23.6005 23.7096L23.4503 23.6384L23.3313 23.5819L23.0617 23.4542L22.9092 23.3817L22.38 23.6453L21.8858 23.8915L21.392 24.1373L20.9139 23.8626L20.4352 23.5875L16.6481 21.4116L16.6384 20.8765L16.6293 20.3414L16.57 16.9346L12.3787 19.0475L12.3897 24.5226L15.559 23.0229L16.0648 22.7841L16.5705 22.5448L17.1873 22.8989L19.3375 24.1345L19.8156 24.4092L20.2942 24.6839L19.8005 24.9301L19.3062 25.1763L18.7808 25.4376L22.8541 27.3957L22.9064 27.421L23.1347 27.3057L23.4181 27.1629L23.9394 26.9001L24.1282 26.805L24.3175 26.7095L24.6009 26.5666L24.8838 26.4238L25.9559 25.8832L26.1442 25.7886L26.3325 25.6935L27.0349 25.3393L26.5838 25.1257L26.3633 25.021L26.1833 24.9356L26.0804 24.8864L26.0032 24.8501L25.5769 24.6476L26.0248 24.3881L26.0588 24.3679L26.2136 24.2783L26.4024 24.1685L26.5411 24.0886L29.2837 22.4979L29.7798 22.7414L30.2758 22.9844L33.4112 24.5226L33.4007 19.0461L29.2263 17.0393Z" fill="white"/>
<path d="M33.6817 14.5284L32.2142 15.2596L28.377 13.0723L27.9131 12.8077L27.4491 12.5436L27.371 8.06885L27.1368 8.18689L26.9485 8.28198L26.7601 8.37705L25.7928 8.86486L25.5094 9.00771L25.226 9.15056L25.0372 9.24564L24.848 9.34072L24.345 9.59473L24.0616 9.73758L23.7777 9.88043L23.1797 10.1822L23.1907 15.6569L23.4806 15.52L23.7635 15.3859L24.0464 15.2523L24.5549 15.0116L24.7432 14.9225L24.932 14.8334L25.215 14.6992L25.4979 14.5656L26.4979 14.0925L26.6857 14.0038L26.8736 13.9147L27.468 13.6336L27.4675 13.6115L27.9314 13.8761L28.3958 14.1402L31.2243 15.7525L29.5538 16.5848L33.679 18.5677L37.8074 16.486L33.6817 14.5284Z" fill="white"/>
</svg>
