<svg width="40" height="40" viewBox="0 0 40 40" fill="none" xmlns="http://www.w3.org/2000/svg">
<g clip-path="url(#clip0_49_3742)">
<path d="M36.0849 16.0136H36.0393C35.7005 16.0538 35.3669 16.1299 35.0443 16.2407C33.9464 16.6207 33.123 17.349 32.5971 18.4051L32.1075 18.1631C32.8494 16.6729 34.0288 16.0109 34.8854 15.7185C35.291 15.5802 35.712 15.4914 36.139 15.4538C36.5712 14.4245 37.283 12.2196 36.196 10.7975C35.2684 9.5838 33.5666 9.36313 32.4518 9.36313C32.0896 9.36098 31.7276 9.38511 31.3689 9.43533C31.3689 9.43533 31.6394 7.61231 30.1038 6.43858C29.5072 5.97892 28.7726 5.73293 28.0186 5.74025C27.3959 5.74539 26.7816 5.88382 26.2171 6.14617C25.9075 6.35504 24.9043 7.08561 24.0094 8.4346L23.5541 8.13447C24.6606 6.46446 25.9011 5.69666 26.0327 5.61811C25.8027 5.04918 25.2281 4.22826 23.8118 4.16968C23.7622 4.16968 23.713 4.1665 23.6643 4.1665C21.5668 4.1665 20.3054 6.0313 20.3054 6.0313C20.3054 6.0313 18.9565 4.56425 16.4528 4.56425C16.3135 4.56425 16.1708 4.56895 16.0247 4.57833C13.5201 4.74179 12.3484 6.82453 12.1421 7.23317C12.0461 7.69222 11.8926 8.80964 12.4445 9.62603C12.8261 10.1909 13.4919 10.5214 14.4159 10.6081L14.3649 11.1507C13.389 11.0599 12.6504 10.7239 12.1626 10.1541C11.8439 10.2681 10.8366 10.7171 10.6316 11.8754C10.3939 13.2199 11.501 13.9917 11.5483 14.024L11.2423 14.4735C11.1831 14.4335 9.79328 13.4773 10.0938 11.7787C10.3247 10.4742 11.3548 9.89574 11.8484 9.69005C11.2687 8.59351 11.5665 7.26087 11.6499 6.93622C11.2628 6.68059 10.6558 6.38228 9.91259 6.38228C9.60625 6.38272 9.30202 6.43287 9.01184 6.53075C7.23584 7.12102 6.826 9.20966 6.826 9.20966C6.826 9.20966 2.27216 9.25507 1.17924 11.7524C0.285773 13.7956 1.03534 15.9864 1.33908 16.7188C1.93882 16.9258 3.70707 17.4453 5.35328 17.0716C7.28821 16.6307 7.83103 14.7981 7.85334 14.7205L8.37885 14.8676C8.35335 14.9584 7.73221 17.0879 5.47487 17.6028C5.02025 17.7035 4.55574 17.753 4.09005 17.7504C2.78947 17.7504 1.63599 17.4017 1.15419 17.2332C-0.357228 18.7552 -0.553954 22.3931 1.58908 23.3761C2.34821 23.7244 3.14741 23.8401 3.87602 23.8401C4.77311 23.8351 5.66283 23.6782 6.50723 23.3761C6.50723 23.3761 6.41615 25.0561 8.78415 26.5545C11.1521 28.0528 22.8555 29.2788 24.9958 30.6409C27.1361 32.0031 26.3164 34.9998 26.3164 34.9998C29.015 34.9644 30.3293 32.444 30.7792 31.3361C30.567 31.2453 28.7964 30.4253 28.4904 27.7709C28.3233 26.3179 28.8625 25.289 29.3447 24.6833C29.8661 24.0258 30.4281 23.7125 30.4513 23.6994L30.7159 24.1761C30.3479 24.4044 30.024 24.6965 29.7596 25.0388C29.1612 25.8021 28.9167 26.7011 29.031 27.7109C29.2924 29.9785 30.7213 30.7159 30.9627 30.8248H31.0146C31.3967 30.8248 33.7547 30.749 36.3795 28.9632C38.5995 27.4521 38.201 24.8272 37.9082 23.7166C37.4489 23.831 36.9772 23.8888 36.5038 23.8887C35.7506 23.8887 34.8321 23.7389 33.9591 23.2013L34.246 22.7377C35.6308 23.5904 37.1996 23.328 37.7525 23.1918C37.9264 23.0978 40.6765 21.5572 39.8386 18.7012C39.1109 16.208 36.7902 16.0136 36.0849 16.0136ZM15.9036 17.6482C15.7405 17.8998 15.5285 18.1162 15.2802 18.2849C15.0319 18.4536 14.7523 18.571 14.4578 18.6303C14.9275 19.1926 15.1863 19.9005 15.1896 20.6323C15.2224 22.8281 13.3425 23.9178 13.2601 23.9632L12.9905 23.4892C13.0588 23.4506 14.6709 22.5089 14.6436 20.6427C14.642 20.2855 14.5673 19.9323 14.4241 19.6049C14.2809 19.2775 14.0722 18.9826 13.8107 18.7384C13.1791 18.1404 12.2223 17.7899 11.3138 17.8235C9.85293 17.8775 8.91211 19.5711 8.903 19.5884L8.42439 19.3264C8.46993 19.2456 9.5205 17.3422 11.2933 17.2768C12.2522 17.2438 13.1922 17.5482 13.9487 18.1368C14.2449 18.1426 14.5378 18.0734 14.7998 17.9355C15.0619 17.7976 15.2845 17.5957 15.4469 17.3486C16.0052 16.5049 15.2133 15.3012 15.2051 15.289L15.6604 14.9857C15.701 15.047 16.6632 16.5013 15.9036 17.6487V17.6482ZM24.4047 14.3441C24.4607 14.3532 25.8087 14.5607 26.5195 13.3266C27.2245 12.1033 26.0937 11.0063 26.0824 10.9955L26.4594 10.6013C26.9644 11.0813 27.7263 12.3267 26.9936 13.5981C26.392 14.6424 25.3597 14.9098 24.677 14.9098C24.555 14.9105 24.4332 14.9009 24.3127 14.8812L24.4047 14.3441ZM27.8037 18.3121C27.5148 18.6041 27.174 18.8401 26.7987 19.0081C26.9817 19.5433 27.1189 20.093 27.2085 20.6513C27.377 21.6425 27.0605 22.7204 26.3624 23.535C25.6037 24.4195 24.5035 24.9044 23.259 24.9044H23.2016C21.7849 24.8876 21.0062 24.3455 20.6027 23.8942C20.1551 23.3947 20.0563 22.8871 20.0522 22.8657L20.3208 22.8158L20.5891 22.7645C20.6023 22.8285 20.9292 24.3328 23.2084 24.3596C24.3123 24.3727 25.2841 23.9541 25.9471 23.179C26.5414 22.4862 26.8123 21.5744 26.6698 20.7403C26.5859 20.2188 26.4586 19.7051 26.2891 19.2047C25.7719 19.3673 25.2326 19.4492 24.6902 19.4476C24.6051 19.4476 24.5195 19.4476 24.4339 19.4417C23.346 19.3913 22.4552 19.0272 21.9894 18.4428C21.697 18.0779 21.468 17.6667 21.3118 17.2264C21.0698 17.291 20.8204 17.3241 20.5699 17.3249C20.0362 17.3249 19.3859 17.1683 18.7939 16.5939C17.5266 15.3634 18.1564 13.6507 18.1828 13.5781L18.4383 13.6744L18.6942 13.7702C18.6705 13.8351 18.1696 15.2272 19.1751 16.2034C19.8955 16.9027 20.7316 16.8155 21.1624 16.7029C21.0414 16.1223 21.0273 15.5246 21.1205 14.9389C21.2087 14.3394 21.3901 13.7572 21.6583 13.2135L21.8992 13.342L22.1406 13.4696C21.9004 13.9647 21.7378 14.4936 21.6583 15.0379C21.4839 16.2234 21.7389 17.2559 22.4165 18.1064C22.7808 18.5604 23.5422 18.8578 24.4589 18.9005C25.6538 18.9559 26.7841 18.5863 27.4093 17.9361C28.704 16.5894 28.3702 14.1311 28.3702 14.1062L28.9112 14.0294C28.9253 14.1407 29.2842 16.7728 27.8037 18.3125V18.3121Z" fill="white"/>
</g>
<defs>
<clipPath id="clip0_49_3742">
<rect width="40" height="40" fill="white"/>
</clipPath>
</defs>
</svg>
