<svg width="50" height="50" viewBox="0 0 50 50" fill="none" xmlns="http://www.w3.org/2000/svg">
<g clip-path="url(#clip0_424_4801)">
<path d="M19.5626 40.6035H5.18812C2.88289 40.6035 1.01953 38.7348 1.01953 36.4349V5.1891C1.01953 2.88386 2.88289 1.02051 5.18812 1.02051H36.4392C38.7391 1.02051 40.6078 2.88386 40.6078 5.1891V19.5689" stroke="white" stroke-width="2" stroke-miterlimit="10" stroke-linecap="round" stroke-linejoin="round"/>
<path d="M20.8086 1.02051V27.3364" stroke="white" stroke-width="2" stroke-miterlimit="10" stroke-linecap="round" stroke-linejoin="round"/>
<path d="M1.01953 20.8096H27.3354" stroke="white" stroke-width="2" stroke-miterlimit="10" stroke-linecap="round" stroke-linejoin="round"/>
<path d="M35.396 48.9356C42.8731 48.9356 48.9347 42.8741 48.9347 35.397C48.9347 27.9198 42.8731 21.8584 35.396 21.8584C27.9189 21.8584 21.8574 27.9198 21.8574 35.397C21.8574 42.8741 27.9189 48.9356 35.396 48.9356Z" stroke="white" stroke-width="2" stroke-miterlimit="10" stroke-linecap="round" stroke-linejoin="round"/>
<path d="M31.2285 38.5218C31.2285 40.2467 32.6287 41.6469 34.3536 41.6469H36.4353C38.1603 41.6469 39.5604 40.2467 39.5604 38.5218C39.5604 36.7969 38.1603 35.3967 36.4353 35.3967H34.3536C32.6287 35.3967 31.2285 33.9965 31.2285 32.2716C31.2285 30.5466 32.6287 29.1465 34.3536 29.1465H36.4353C38.1603 29.1465 39.5604 30.5466 39.5604 32.2716" stroke="white" stroke-width="2" stroke-miterlimit="10" stroke-linecap="round" stroke-linejoin="round"/>
<path d="M35.3965 41.6416V44.7667" stroke="white" stroke-width="2" stroke-miterlimit="10" stroke-linecap="round" stroke-linejoin="round"/>
<path d="M35.3965 26.0215V29.1466" stroke="white" stroke-width="2" stroke-miterlimit="10" stroke-linecap="round" stroke-linejoin="round"/>
<path d="M26.0215 11.4395H34.3533" stroke="white" stroke-width="2" stroke-miterlimit="10" stroke-linecap="round" stroke-linejoin="round"/>
<path d="M7.26953 28.1025H15.6014" stroke="white" stroke-width="2" stroke-miterlimit="10" stroke-linecap="round" stroke-linejoin="round"/>
<path d="M7.26953 32.2715H15.6014" stroke="white" stroke-width="2" stroke-miterlimit="10" stroke-linecap="round" stroke-linejoin="round"/>
<path d="M30.1855 15.6024V7.27051" stroke="white" stroke-width="2" stroke-miterlimit="10" stroke-linecap="round" stroke-linejoin="round"/>
<path d="M7.44531 14.3837L13.3388 8.49023" stroke="white" stroke-width="2" stroke-miterlimit="10" stroke-linecap="round" stroke-linejoin="round"/>
<path d="M13.3388 14.3837L7.44531 8.49023" stroke="white" stroke-width="2" stroke-miterlimit="10" stroke-linecap="round" stroke-linejoin="round"/>
</g>
<defs>
<clipPath id="clip0_424_4801">
<rect width="50" height="50" fill="white"/>
</clipPath>
</defs>
</svg>
