<svg width="22" height="22" viewBox="0 0 22 22" fill="none" xmlns="http://www.w3.org/2000/svg">
<g clip-path="url(#clip0_49_3792)">
<path d="M3.28175 19.4297H16.3525L15.7283 17.4084L17.2215 18.6899L18.5901 19.9164L21.0834 22V2.26875C21.0211 1.04225 19.9651 0 18.6561 0L3.28633 0.00275C1.97825 0.00275 0.916748 1.04683 0.916748 2.27333V17.16C0.916748 18.4534 1.97641 19.4297 3.28175 19.4297ZM12.9507 5.20942L12.9205 5.22042L12.9315 5.20942H12.9507ZM5.95567 6.37267C7.63592 5.14983 9.19333 5.2085 9.19333 5.2085L9.31892 5.33225C7.26283 5.82267 6.33058 6.74117 6.33058 6.74117C6.33058 6.74117 6.57992 6.61925 7.01533 6.43317C9.78458 5.34417 12.8087 5.423 15.6082 6.80167C15.6082 6.80167 14.6741 5.94275 12.7445 5.39275L12.915 5.225C13.1817 5.22592 14.5934 5.27542 16.1041 6.38C16.1041 6.38 17.7944 9.2675 17.7944 12.815C17.7385 12.7472 16.7457 14.3422 14.191 14.3972C14.191 14.3972 13.7583 13.9077 13.4503 13.4805C14.9445 13.0515 15.5037 12.1935 15.5037 12.1935C15.0132 12.5024 14.5659 12.6858 14.2029 12.8691C13.6447 13.1147 13.0855 13.2358 12.5272 13.3595C9.88358 13.7885 8.3995 13.0708 6.997 12.5015L6.51758 12.2577C6.51758 12.2577 7.07583 13.1157 8.51042 13.5447C8.13367 13.9746 7.76058 14.4632 7.76058 14.4632C5.20675 14.4027 4.27541 12.8077 4.27541 12.8077C4.27541 9.25467 5.95567 6.37267 5.95567 6.37267Z" fill="white"/>
<path d="M13.1156 11.707C13.7674 11.707 14.2981 11.157 14.2981 10.4786C14.2981 9.80488 13.7701 9.25488 13.1156 9.25488V9.25763C12.4666 9.25763 11.9349 9.8058 11.9331 10.4841C11.9331 11.157 12.4639 11.707 13.1156 11.707Z" fill="white"/>
<path d="M8.88245 11.707C9.5342 11.707 10.0649 11.157 10.0649 10.4786C10.0649 9.80488 9.53786 9.25488 8.88611 9.25488L8.88245 9.25763C8.2307 9.25763 7.69995 9.8058 7.69995 10.4841C7.69995 11.157 8.2307 11.707 8.88245 11.707Z" fill="white"/>
</g>
<defs>
<clipPath id="clip0_49_3792">
<rect width="22" height="22" fill="white"/>
</clipPath>
</defs>
</svg>
