<svg width="50" height="50" viewBox="0 0 50 50" fill="none" xmlns="http://www.w3.org/2000/svg">
<path fill-rule="evenodd" clip-rule="evenodd" d="M30.4367 11.5485C28.9883 12.1921 27.5244 12.5003 25.0003 12.5003C22.4763 12.5003 21.0123 12.1921 19.564 11.5485C19.4661 11.5049 19.2316 11.3956 19.002 11.2887C18.7816 11.1861 18.5655 11.0854 18.479 11.0469C17.5081 10.6154 16.7045 10.417 15.6253 10.417C10.1241 10.417 4.16699 18.4766 4.16699 30.2087C4.16699 36.3325 5.40589 39.3311 8.25487 39.6706C10.1946 39.9019 10.9779 39.5365 16.5888 36.383C19.2192 34.9047 20.9457 34.0991 22.6858 33.6515C23.5037 33.4411 24.2724 33.3337 25.0003 33.3337C25.7282 33.3337 26.497 33.4411 27.3148 33.6515C29.0549 34.0991 30.7815 34.9047 33.4119 36.383C39.0227 39.5365 39.8061 39.9019 41.7457 39.6706C44.5948 39.3311 45.8337 36.3325 45.8337 30.2087C45.8337 18.4766 39.8766 10.417 34.3753 10.417C33.2962 10.417 32.4925 10.6154 31.5217 11.0469C31.4351 11.0854 31.2191 11.1861 30.9988 11.2887C30.7691 11.3956 30.5346 11.5049 30.4367 11.5485ZM25.0003 14.5837C22.1858 14.5837 20.4337 14.2148 18.7179 13.4522C18.597 13.3985 18.3266 13.2724 18.0826 13.1588H18.0825C17.8822 13.0654 17.6998 12.9804 17.6328 12.9506C16.911 12.6298 16.3865 12.5003 15.6253 12.5003C11.4346 12.5003 6.25033 19.5143 6.25033 30.2087C6.25033 35.3851 7.09709 37.4346 8.50144 37.602C9.75176 37.7509 10.639 37.3372 15.568 34.5669C18.3468 33.0052 20.2033 32.1389 22.1668 31.6338C23.1464 31.3818 24.0874 31.2503 25.0003 31.2503C25.9132 31.2503 26.8543 31.3818 27.8339 31.6338C29.7973 32.1389 31.6539 33.0052 34.4326 34.5669C39.3617 37.3372 40.2489 37.7509 41.4992 37.602C42.9036 37.4346 43.7503 35.3851 43.7503 30.2087C43.7503 19.5143 38.5661 12.5003 34.3753 12.5003C33.6142 12.5003 33.0897 12.6298 32.3678 12.9506C32.3008 12.9804 32.1183 13.0654 31.918 13.1589C31.6741 13.2724 31.4037 13.3985 31.2827 13.4522C29.567 14.2148 27.8148 14.5837 25.0003 14.5837ZM16.667 20.8337H19.792C20.3673 20.8337 20.8337 21.3 20.8337 21.8753C20.8337 22.4506 20.3673 22.917 19.792 22.917H16.667V26.042C16.667 26.6173 16.2006 27.0837 15.6253 27.0837C15.05 27.0837 14.5837 26.6173 14.5837 26.042V22.917H11.4587C10.8833 22.917 10.417 22.4506 10.417 21.8753C10.417 21.3 10.8833 20.8337 11.4587 20.8337H14.5837V17.7087C14.5837 17.1333 15.05 16.667 15.6253 16.667C16.2006 16.667 16.667 17.1333 16.667 17.7087V20.8337ZM28.1253 16.667H30.2087C30.784 16.667 31.2503 17.1333 31.2503 17.7087V19.792C31.2503 20.3673 30.784 20.8337 30.2087 20.8337H28.1253C27.55 20.8337 27.0837 20.3673 27.0837 19.792V17.7087C27.0837 17.1333 27.55 16.667 28.1253 16.667ZM36.4587 16.667H34.3753C33.8 16.667 33.3337 17.1333 33.3337 17.7087V19.792C33.3337 20.3673 33.8 20.8337 34.3753 20.8337H36.4587C37.034 20.8337 37.5003 20.3673 37.5003 19.792V17.7087C37.5003 17.1333 37.034 16.667 36.4587 16.667ZM32.292 22.917C32.8673 22.917 33.3337 23.3833 33.3337 23.9587V26.042C33.3337 26.6173 32.8673 27.0837 32.292 27.0837H30.2087C29.6333 27.0837 29.167 26.6173 29.167 26.042V23.9587C29.167 23.3833 29.6333 22.917 30.2087 22.917H32.292ZM39.5837 23.9587C39.5837 23.3833 39.1173 22.917 38.542 22.917H36.4587C35.8833 22.917 35.417 23.3833 35.417 23.9587V26.042C35.417 26.6173 35.8833 27.0837 36.4587 27.0837H38.542C39.1173 27.0837 39.5837 26.6173 39.5837 26.042V23.9587Z" fill="white"/>
</svg>
