<svg width="31" height="30" viewBox="0 0 31 30" fill="none" xmlns="http://www.w3.org/2000/svg">
<g clip-path="url(#clip0_49_3566)">
<path d="M24.25 0H6.75C3.29875 0 0.5 2.79875 0.5 6.25V23.75C0.5 27.2013 3.29875 30 6.75 30H24.25C27.7025 30 30.5 27.2013 30.5 23.75V6.25C30.5 2.79875 27.7025 0 24.25 0ZM10.5 23.75H6.75V10H10.5V23.75ZM8.625 8.415C7.4175 8.415 6.4375 7.4275 6.4375 6.21C6.4375 4.9925 7.4175 4.005 8.625 4.005C9.8325 4.005 10.8125 4.9925 10.8125 6.21C10.8125 7.4275 9.83375 8.415 8.625 8.415ZM25.5 23.75H21.75V16.745C21.75 12.535 16.75 12.8538 16.75 16.745V23.75H13V10H16.75V12.2063C18.495 8.97375 25.5 8.735 25.5 15.3013V23.75Z" fill="white"/>
</g>
<defs>
<clipPath id="clip0_49_3566">
<rect width="30" height="30" fill="white" transform="translate(0.5)"/>
</clipPath>
</defs>
</svg>
