<svg width="22" height="22" viewBox="0 0 22 22" fill="none" xmlns="http://www.w3.org/2000/svg">
<path d="M5.92273 5C9.19378 5 11.8453 7.67522 11.8453 10.975C11.8453 14.2749 9.19357 16.9499 5.92273 16.9499C2.65189 16.9499 0 14.2749 0 10.975C0 7.67522 2.65169 5 5.92273 5ZM15.3809 5.35C17.0164 5.35 18.3423 7.86817 18.3423 10.975H18.3425C18.3425 14.0811 17.0166 16.6001 15.3811 16.6001C13.7456 16.6001 12.4197 14.0811 12.4197 10.975C12.4197 7.86897 13.7454 5.35 15.3809 5.35ZM19.9585 5.93589C20.5336 5.93589 21 8.19196 21 10.975C21 13.7573 20.5338 16.0142 19.9585 16.0142C19.3832 16.0142 18.9172 13.7579 18.9172 10.975C18.9172 8.19216 19.3834 5.93589 19.9585 5.93589Z" fill="white"/>
</svg>
