<svg width="32" height="40" viewBox="0 0 32 40" fill="none" xmlns="http://www.w3.org/2000/svg">
<path d="M11.2929 18.1772C11.4702 18.2827 11.656 18.3371 11.8588 18.3443C11.7731 17.6962 11.606 16.9874 11.0044 16.4858C11.075 16.8052 11.1098 17.1165 11.1402 17.393C11.1705 17.6685 11.2161 18.0826 11.2934 18.1777L11.2929 18.1772Z" fill="white"/>
<path d="M29.8918 19.0092C30.3639 20.1057 30.6319 21.2902 30.6877 22.5377C30.7435 23.7878 30.5881 25.0812 30.2254 26.381C29.9012 27.5431 29.405 28.7075 28.7908 29.7473C27.999 31.0881 25.9243 33.4401 23.24 35.4356C20.884 37.1869 17.2239 39.2745 13.1684 39.2745C12.3117 39.2745 11.4622 39.1802 10.6431 38.9944C9.7485 38.7917 8.89721 38.5147 8.09326 38.1681C9.22459 38.8461 10.5381 39.3888 12.0572 39.7332C20.1627 41.572 28.0534 33.3976 29.6252 30.7361C31.5059 27.5507 32.4631 22.8423 29.8927 19.0088L29.8918 19.0092Z" fill="white"/>
<path d="M13.1678 38.7393C20.3733 38.7393 26.9139 31.8718 28.3288 29.4756C30.365 26.0275 31.3173 20.7947 27.8862 16.8192C27.4869 16.3565 27.0291 15.9108 26.5057 15.4869C25.3516 14.5521 24.2555 14.0487 23.2144 13.854C22.9777 14.2622 22.7302 14.6803 22.4716 15.1073C22.3207 15.3569 22.1652 15.6097 22.0071 15.8648C22.1036 16.1332 22.059 16.3485 21.9799 16.5039L21.9754 16.5128L21.9705 16.5213C20.5641 19.0569 18.9061 20.851 18.836 20.926L18.5689 21.2128C18.5596 21.4008 18.5381 21.6134 18.4957 21.8408C18.3036 22.8707 17.7793 23.7215 16.9798 24.3013C15.9847 25.0226 15.0084 25.174 14.3643 25.174C13.9882 25.174 13.7002 25.1226 13.5246 25.0798C13.1856 24.9967 12.9958 24.8864 12.89 24.7117C12.789 24.5451 12.7823 24.3433 12.8716 24.1722C12.9958 23.9346 13.2187 23.8694 13.3384 23.8341C13.3598 23.8278 13.3888 23.8194 13.4085 23.8118C13.4259 23.6916 13.4322 23.4125 13.4371 23.2021C13.4545 22.4451 13.4786 21.408 13.8743 20.7581C14.2821 20.0886 14.9208 19.6281 15.3956 19.3552L15.4389 19.2199L15.4706 19.1207C15.492 19.0538 15.8824 17.838 16.618 16.1149C14.8051 17.4548 13.2499 18.8693 11.9203 18.8818C11.9145 18.8818 11.9082 18.8822 11.9024 18.8822C11.592 18.8822 11.2941 18.8054 11.0078 18.6326C10.4893 18.3195 10.7345 17.1145 10.3276 16.0952C10.0806 15.4766 9.59287 14.9264 8.54775 14.6856C8.19669 14.6048 7.85815 14.5664 7.53121 14.5664C2.87994 14.5664 0.694991 22.3285 0.548047 25.6238C0.435495 28.1526 1.56772 32.7155 5.20557 35.7736C6.64106 36.9804 8.46646 37.9527 10.7599 38.4731C11.567 38.6562 12.3701 38.7397 13.1669 38.7397L13.1678 38.7393ZM23.8433 21.5991C24.9139 20.8189 24.8772 19.378 26.1225 19.8296C27.3677 20.2811 27.754 22.4951 27.3025 23.7403C26.8509 24.9855 25.4753 25.6291 24.2296 25.1771C22.4797 24.5425 22.6816 22.4455 23.8428 21.5991H23.8433ZM17.8713 30.0794C18.1862 28.9204 20.4341 28.6194 21.7892 28.2866C22.9554 28.0003 23.7615 28.4505 23.4466 29.6091C23.1318 30.7681 20.7324 33.2496 19.5739 32.9348C18.4148 32.6199 17.5564 31.238 17.8713 30.0794ZM7.23509 28.1531C6.92021 29.3121 6.54504 30.9052 5.38646 30.5904C4.22744 30.2755 2.96078 28.6667 3.27566 27.5077C3.59054 26.3487 5.00369 24.8623 6.16226 25.1771C7.32129 25.492 7.54996 26.9941 7.23509 28.1531ZM9.32624 32.5734C9.42227 31.0696 11.0954 29.3737 12.3433 31.9026C12.8748 32.9794 14.9208 32.8494 14.6059 34.0085C14.291 35.1675 12.3978 35.6615 11.2392 35.3466C10.0802 35.0317 9.24987 33.7718 9.32624 32.5734Z" fill="white"/>
<path d="M19.5836 14.032C19.7024 14.0766 19.8239 14.1267 19.9463 14.1812C20.0486 14.2272 20.1518 14.2758 20.2554 14.3285C20.7757 14.593 21.238 14.9101 21.5569 15.2214C21.5864 15.2504 21.6141 15.2785 21.6409 15.3071C21.6574 15.3245 21.673 15.342 21.6882 15.3589C21.7047 15.3317 21.7217 15.3049 21.7382 15.2776C22.0477 14.7747 22.3479 14.2736 22.6386 13.776C22.6887 13.6907 22.7382 13.6054 22.7874 13.5201C22.836 13.4362 22.8847 13.3518 22.933 13.2682C26.8826 6.39137 28.9626 0.349274 28.0327 0.0156366C28.0036 0.005364 27.9715 0 27.9366 0C26.7468 0 22.2536 6.00056 18.551 13.7765C18.7489 13.7939 18.97 13.8377 19.2049 13.906C19.3277 13.9418 19.4546 13.9837 19.5841 14.0324L19.5836 14.032Z" fill="white"/>
<path d="M16.0657 19.0319C16.0715 19.0301 16.0768 19.0275 16.0822 19.0257L16.2515 18.9618L16.2988 18.9877C16.3046 18.9877 16.3104 18.9877 16.3162 18.9877C16.3287 18.9877 16.3417 18.9868 16.3542 18.9868C16.6543 18.9868 17.0648 19.1137 17.4806 19.3352C17.7852 19.4973 18.2412 19.7872 18.4436 20.153L18.461 20.1624L18.5021 20.1847L18.5432 20.4478V20.4509C18.6021 20.3852 18.6848 20.291 18.7866 20.1709C19.3467 19.513 20.4963 18.0739 21.5021 16.261C21.5213 16.2235 21.5276 16.1806 21.5231 16.1333C21.5146 16.0479 21.4682 15.9483 21.3896 15.8403C21.3132 15.7353 21.2074 15.6223 21.0756 15.5066C20.8094 15.2717 20.4409 15.0247 20.0126 14.8072C19.7455 14.6714 19.4833 14.562 19.2399 14.4798C19.1041 14.4338 18.9742 14.3967 18.8522 14.369C18.6848 14.3306 18.5329 14.3092 18.4034 14.3061C18.3922 14.3061 18.3806 14.3052 18.3699 14.3052C18.3462 14.3052 18.3239 14.3061 18.302 14.3074C18.1291 14.3177 18.0081 14.3682 17.9603 14.4624C17.9375 14.5088 17.9152 14.5553 17.8929 14.6017C17.8205 14.7523 17.7504 14.901 17.682 15.0475C17.6092 15.2042 17.5387 15.3583 17.4699 15.5102C16.8535 16.8769 16.4207 18.027 16.1867 18.6862C16.1376 18.8242 16.0974 18.9413 16.0657 19.0333V19.0319Z" fill="white"/>
<path d="M18.0268 20.644C18.0205 20.5707 18.0138 20.5301 18.0138 20.5301L18.0102 20.5283C18.0138 20.455 17.9531 20.355 17.845 20.2451C17.7061 20.104 17.489 19.9468 17.2286 19.8079C16.9606 19.6654 16.702 19.5716 16.5051 19.5372C16.4497 19.5274 16.3988 19.5225 16.3541 19.5225C16.2938 19.5225 16.2451 19.5314 16.2103 19.5506H16.2098C16.2098 19.5506 16.1571 19.5702 16.0687 19.6104C16.0611 19.614 16.0535 19.6176 16.045 19.6212C15.9798 19.6511 15.8981 19.6908 15.8052 19.7404C15.7945 19.7462 15.7842 19.7516 15.7735 19.7574C15.7109 19.7913 15.6439 19.8293 15.5738 19.8713C15.1678 20.1156 14.6591 20.5015 14.3326 21.0366C13.8306 21.8602 14.0593 23.7119 13.8994 24.0438C13.7395 24.3756 13.3996 24.3193 13.3469 24.4203C13.3205 24.4707 13.7337 24.6382 14.3643 24.6382C14.995 24.6382 15.8293 24.4739 16.6654 23.8673C17.7288 23.0964 17.9857 21.9638 18.0317 21.2366C18.0379 21.1393 18.0401 21.0491 18.0401 20.9682C18.0401 20.9638 18.0401 20.9593 18.0401 20.9544C18.0401 20.8539 18.0357 20.7677 18.0312 20.6998C18.0299 20.6792 18.0281 20.6609 18.0268 20.644Z" fill="white"/>
</svg>
