<svg width="50" height="50" viewBox="0 0 50 50" fill="none" xmlns="http://www.w3.org/2000/svg">
<path fill-rule="evenodd" clip-rule="evenodd" d="M7.94411 27.8883L16.3925 23.5395C16.5746 23.4561 16.7346 23.3192 16.8467 23.1353C17.1463 22.6443 16.991 22.0032 16.4999 21.7037C14.0343 20.1996 12.4993 17.5247 12.4993 14.5837C12.4993 9.98128 16.2303 6.25033 20.8327 6.25033C23.6282 6.25033 26.1877 7.63604 27.7304 9.90587C28.0537 10.3817 28.7016 10.5052 29.1775 10.1819C29.6532 9.85847 29.7769 9.21061 29.4534 8.73481C27.5268 5.90021 24.3256 4.16699 20.8327 4.16699C15.0798 4.16699 10.416 8.83069 10.416 14.5837C10.416 17.651 11.7532 20.4885 13.9859 22.4351L6.99062 26.036C5.25615 26.9288 4.16602 28.7161 4.16602 30.6668V32.292C4.16602 35.1686 6.49789 37.5003 9.3745 37.5003C9.94979 37.5003 10.4161 37.034 10.4161 36.4587C10.4161 35.8833 9.94979 35.417 9.3745 35.417C7.64847 35.417 6.24935 34.0179 6.24935 32.292V30.6668C6.24935 29.4964 6.90343 28.424 7.94411 27.8883ZM16.4146 36.2968L24.9187 32.4313C26.2158 33.0113 27.6533 33.3338 29.166 33.3338C30.6788 33.3338 32.1162 33.0113 33.4134 32.4313L41.9175 36.2968C43.0331 36.8039 43.7494 37.9163 43.7494 39.1417V40.6254C43.7494 42.3513 42.3503 43.7504 40.6244 43.7504H17.7077C15.9818 43.7504 14.5827 42.3513 14.5827 40.6254V39.1417C14.5827 37.9163 15.2989 36.8039 16.4146 36.2968ZM22.7538 31.1268C20.3161 29.2202 18.7493 26.2516 18.7493 22.917C18.7493 17.164 23.413 12.5003 29.166 12.5003C34.9189 12.5003 39.5827 17.164 39.5827 22.917C39.5827 26.2516 38.0158 29.2202 35.5781 31.1268L42.7796 34.4001C44.6389 35.2453 45.8327 37.0992 45.8327 39.1416V40.6253C45.8327 43.5018 43.5008 45.8337 40.6244 45.8337H17.7077C14.8311 45.8337 12.4993 43.5018 12.4993 40.6253V39.1416C12.4993 37.0992 13.6931 35.2453 15.5524 34.4001L22.7538 31.1268ZM37.4994 22.917C37.4994 27.5194 33.7684 31.2503 29.166 31.2503C24.5637 31.2503 20.8327 27.5194 20.8327 22.917C20.8327 18.3146 24.5637 14.5837 29.166 14.5837C33.7684 14.5837 37.4994 18.3146 37.4994 22.917Z" fill="white"/>
</svg>
