<svg width="50" height="50" viewBox="0 0 50 50" fill="none" xmlns="http://www.w3.org/2000/svg">
<path fill-rule="evenodd" clip-rule="evenodd" d="M25.0003 45.8337C13.4944 45.8337 4.16699 36.5063 4.16699 25.0003C4.16699 13.4944 13.4944 4.16699 25.0003 4.16699C36.5063 4.16699 45.8337 13.4944 45.8337 25.0003C45.8337 36.5063 36.5063 45.8337 25.0003 45.8337ZM25.0003 43.7503C35.3556 43.7503 43.7503 35.3556 43.7503 25.0003C43.7503 14.645 35.3556 6.25033 25.0003 6.25033C14.645 6.25033 6.25033 14.645 6.25033 25.0003C6.25033 35.3556 14.645 43.7503 25.0003 43.7503ZM32.292 27.0837C31.7167 27.0837 31.2503 27.55 31.2503 28.1253C31.2503 31.0018 28.9185 33.3337 26.042 33.3337H23.9587C21.0822 33.3337 18.7503 31.0018 18.7503 28.1253C18.7503 27.55 18.284 27.0837 17.7087 27.0837C17.1333 27.0837 16.667 27.55 16.667 28.1253C16.667 32.1524 19.9316 35.417 23.9587 35.417H26.042C30.0691 35.417 33.3337 32.1524 33.3337 28.1253C33.3337 27.55 32.8673 27.0837 32.292 27.0837ZM18.7503 22.917C17.5997 22.917 16.667 21.9843 16.667 20.8337C16.667 19.683 17.5997 18.7503 18.7503 18.7503C19.901 18.7503 20.8337 19.683 20.8337 20.8337C20.8337 21.9843 19.901 22.917 18.7503 22.917ZM29.167 20.8337C29.167 21.9843 30.0997 22.917 31.2503 22.917C32.401 22.917 33.3337 21.9843 33.3337 20.8337C33.3337 19.683 32.401 18.7503 31.2503 18.7503C30.0997 18.7503 29.167 19.683 29.167 20.8337Z" fill="white"/>
</svg>
