<svg width="22" height="18" viewBox="0 0 22 18" fill="none" xmlns="http://www.w3.org/2000/svg">
<path d="M19.7395 4.52025C20.6342 3.885 21.3868 3.09208 22 2.17908V2.17817C21.1814 2.53658 20.3106 2.77492 19.4013 2.89042C20.3363 2.33217 21.0503 1.45492 21.3858 0.398C20.5141 0.91775 19.5516 1.28442 18.5258 1.48975C17.6981 0.607917 16.5183 0.0625 15.2313 0.0625C12.7343 0.0625 10.7241 2.08925 10.7241 4.57342C10.7241 4.93092 10.7543 5.27467 10.8286 5.60192C7.07942 5.41858 3.76108 3.62192 1.53175 0.883833C1.14308 1.55942 0.913917 2.33217 0.913917 3.16358C0.913917 4.72558 1.71783 6.10975 2.91775 6.91183C2.19267 6.89808 1.48225 6.68725 0.88 6.35633V6.40583C0.88 8.59758 2.44292 10.4181 4.4935 10.8379C4.12592 10.9388 3.72625 10.9864 3.311 10.9864C3.02225 10.9864 2.73075 10.9699 2.45758 10.9094C3.0415 12.6951 4.70067 14.0087 6.6715 14.0518C5.137 15.2517 3.18817 15.9749 1.07892 15.9749C0.7095 15.9749 0.35475 15.9584 0 15.9135C1.99833 17.2014 4.36517 17.9375 6.919 17.9375C14.8784 17.9375 20.0658 11.2972 19.7395 4.52025Z" fill="white"/>
</svg>
